<svg width="84" height="68" viewBox="0 0 84 68" fill="none" xmlns="http://www.w3.org/2000/svg">
<g filter="url(#filter0_d_0_246)">
<rect x="21.3229" y="21.3229" width="41.3542" height="25.3542" rx="12.6771" fill="#F8F8F8" stroke="#D9D9D9" stroke-width="2.64583"/>
<path d="M47.8785 25.8333C52.6162 25.8333 56.4576 29.4391 56.4576 33.887C56.4574 38.3347 52.6161 41.9397 47.8785 41.9397C45.7544 41.9396 43.8122 41.2134 42.314 40.0129C40.8158 41.2133 38.8736 41.9407 36.7496 41.9407C32.0121 41.9405 28.1716 38.3346 28.1714 33.887C28.1714 29.4393 32.012 25.8334 36.7496 25.8333C38.8732 25.8333 40.8159 26.559 42.314 27.759C43.8121 26.5589 45.7547 25.8333 47.8785 25.8333Z" fill="#ED0006"/>
<path d="M47.8788 25.8333C52.6166 25.8333 56.457 29.4391 56.457 33.887C56.4568 38.3347 52.6165 41.9397 47.8788 41.9397C45.7548 41.9397 43.8126 41.2134 42.3144 40.0129C44.1578 38.5358 45.328 36.3406 45.3281 33.887C45.3281 31.4329 44.1583 29.2362 42.3144 27.759C43.8125 26.5589 45.7551 25.8333 47.8788 25.8333Z" fill="#F9A000"/>
<path d="M42.3141 27.759C44.1581 29.2362 45.3287 31.4329 45.3287 33.887C45.3286 36.3406 44.1576 38.5359 42.3141 40.0129C40.4707 38.5359 39.3005 36.3405 39.3004 33.887C39.3004 31.433 40.4703 29.2362 42.3141 27.759Z" fill="#FF5E00"/>
</g>
<defs>
<filter id="filter0_d_0_246" x="0" y="0" width="84" height="68" filterUnits="userSpaceOnUse" color-interpolation-filters="sRGB">
<feFlood flood-opacity="0" result="BackgroundImageFix"/>
<feColorMatrix in="SourceAlpha" type="matrix" values="0 0 0 0 0 0 0 0 0 0 0 0 0 0 0 0 0 0 127 0" result="hardAlpha"/>
<feOffset/>
<feGaussianBlur stdDeviation="10"/>
<feComposite in2="hardAlpha" operator="out"/>
<feColorMatrix type="matrix" values="0 0 0 0 0 0 0 0 0 0 0 0 0 0 0 0 0 0 0.07 0"/>
<feBlend mode="normal" in2="BackgroundImageFix" result="effect1_dropShadow_0_246"/>
<feBlend mode="normal" in="SourceGraphic" in2="effect1_dropShadow_0_246" result="shape"/>
</filter>
</defs>
</svg>
